<!-- Generated by tools/docs/railroad.py from docs/specification/grammar.md. Do not edit. -->
<svg aria-label="Syntax diagram for bitwise_xor_expression" class="railroad-diagram" height="92" role="img" viewBox="0 0 504.0 92" width="504.0" xmlns="http://www.w3.org/2000/svg" xmlns:xlink="http://www.w3.org/1999/xlink">
<g transform="translate(.5 .5)">
<g>
<path d="M20 21v20m10 -20v20m-10 -10h197.0" /><text style="text-anchor:start" x="20" y="16">bitwise_xor_expression</text></g><path d="M217.0 31h10" /><g>
<path d="M227.0 31h0.0" /><path d="M454.0 31h0.0" /><path d="M227.0 31h10" /><g class="non-terminal ">
<path d="M237.0 31h0.0" /><path d="M444.0 31h0.0" /><rect height="22" width="207" x="237" y="20"></rect><a xlink:href="#rule-bitwise_and_expression"><text x="340.5" y="35">bitwise_and_expression</text></a></g><path d="M444.0 31h10" /><path d="M237.0 31a10 10 0 0 0 -10 10v10a10 10 0 0 0 10 10" /><g class="terminal ">
<path d="M237.0 61h89.25" /><path d="M354.75 61h89.25" /><rect height="22" rx="10" ry="10" width="28.5" x="326.25" y="50"></rect><text x="340.5" y="65">^</text></g><path d="M444.0 61a10 10 0 0 0 10 -10v-10a10 10 0 0 0 -10 -10" /></g><path d="M454.0 31h10" /><path d="M 464.0 31 h 20 m -10 -10 v 20 m 10 -20 v 20"></path></g></svg>
