<!-- Generated by tools/docs/railroad.py from docs/specification/grammar.md. Do not edit. -->
<svg aria-label="Syntax diagram for multiplicative_expression" class="railroad-diagram" height="152" role="img" viewBox="0 0 478.5 152" width="478.5" xmlns="http://www.w3.org/2000/svg" xmlns:xlink="http://www.w3.org/1999/xlink">
<g transform="translate(.5 .5)">
<g>
<path d="M20 21v20m10 -20v20m-10 -10h222.5" /><text style="text-anchor:start" x="20" y="16">multiplicative_expression</text></g><path d="M242.5 31h10" /><g>
<path d="M252.5 31h0.0" /><path d="M428.5 31h0.0" /><path d="M252.5 31h10" /><g class="non-terminal ">
<path d="M262.5 31h0.0" /><path d="M418.5 31h0.0" /><rect height="22" width="156" x="262.5" y="20"></rect><a xlink:href="#rule-unary_expression"><text x="340.5" y="35">unary_expression</text></a></g><path d="M418.5 31h10" /><path d="M262.5 31a10 10 0 0 0 -10 10v10a10 10 0 0 0 10 10" /><g>
<path d="M262.5 61h43.75" /><path d="M374.75 61h43.75" /><path d="M306.25 61h20" /><g class="terminal ">
<path d="M326.25 61h0.0" /><path d="M354.75 61h0.0" /><rect height="22" rx="10" ry="10" width="28.5" x="326.25" y="50"></rect><text x="340.5" y="65">*</text></g><path d="M354.75 61h20" /><path d="M306.25 61a10 10 0 0 1 10 10v10a10 10 0 0 0 10 10" /><g class="terminal ">
<path d="M326.25 91h0.0" /><path d="M354.75 91h0.0" /><rect height="22" rx="10" ry="10" width="28.5" x="326.25" y="80"></rect><text x="340.5" y="95">/</text></g><path d="M354.75 91a10 10 0 0 0 10 -10v-10a10 10 0 0 1 10 -10" /><path d="M306.25 61a10 10 0 0 1 10 10v40a10 10 0 0 0 10 10" /><g class="terminal ">
<path d="M326.25 121h0.0" /><path d="M354.75 121h0.0" /><rect height="22" rx="10" ry="10" width="28.5" x="326.25" y="110"></rect><text x="340.5" y="125">%</text></g><path d="M354.75 121a10 10 0 0 0 10 -10v-40a10 10 0 0 1 10 -10" /></g><path d="M418.5 61a10 10 0 0 0 10 -10v-10a10 10 0 0 0 -10 -10" /></g><path d="M428.5 31h10" /><path d="M 438.5 31 h 20 m -10 -10 v 20 m 10 -20 v 20"></path></g></svg>
