<!-- Generated by tools/docs/railroad.py from docs/specification/grammar.md. Do not edit. -->
<svg aria-label="Syntax diagram for parameter" class="railroad-diagram" height="62" role="img" viewBox="0 0 394.0 62" width="394.0" xmlns="http://www.w3.org/2000/svg" xmlns:xlink="http://www.w3.org/1999/xlink">
<g transform="translate(.5 .5)">
<g>
<path d="M20 21v20m10 -20v20m-10 -10h86.5" /><text style="text-anchor:start" x="20" y="16">parameter</text></g><path d="M106.5 31h10" /><g>
<path d="M116.5 31h0.0" /><path d="M344.0 31h0.0" /><g class="non-terminal ">
<path d="M116.5 31h0.0" /><path d="M221.5 31h0.0" /><rect height="22" width="105" x="116.5" y="20"></rect><a xlink:href="#rule-identifier"><text x="169" y="35">identifier</text></a></g><path d="M221.5 31h10" /><path d="M231.5 31h10" /><g class="terminal ">
<path d="M241.5 31h0.0" /><path d="M270.0 31h0.0" /><rect height="22" rx="10" ry="10" width="28.5" x="241.5" y="20"></rect><text x="255.75" y="35">:</text></g><path d="M270.0 31h10" /><path d="M280.0 31h10" /><g class="non-terminal ">
<path d="M290.0 31h0.0" /><path d="M344.0 31h0.0" /><rect height="22" width="54" x="290" y="20"></rect><a xlink:href="#rule-type"><text x="317" y="35">type</text></a></g></g><path d="M344.0 31h10" /><path d="M 354.0 31 h 20 m -10 -10 v 20 m 10 -20 v 20"></path></g></svg>
