<!-- Generated by tools/docs/railroad.py from docs/specification/grammar.md. Do not edit. -->
<svg aria-label="Syntax diagram for range_expression" class="railroad-diagram" height="71" role="img" viewBox="0 0 832.0 71" width="832.0" xmlns="http://www.w3.org/2000/svg" xmlns:xlink="http://www.w3.org/1999/xlink">
<g transform="translate(.5 .5)">
<g>
<path d="M20 30v20m10 -20v20m-10 -10h146.0" /><text style="text-anchor:start" x="20" y="25">range_expression</text></g><path d="M166.0 40h10" /><g>
<path d="M176.0 40h0.0" /><path d="M782.0 40h0.0" /><g class="non-terminal ">
<path d="M176.0 40h0.0" /><path d="M374.5 40h0.0" /><rect height="22" width="198.5" x="176" y="29"></rect><a xlink:href="#rule-logical_or_expression"><text x="275.25" y="44">logical_or_expression</text></a></g><path d="M374.5 40h10" /><g>
<path d="M384.5 40h0.0" /><path d="M782.0 40h0.0" /><path d="M384.5 40a10 10 0 0 0 10 -10v0a10 10 0 0 1 10 -10" /><g>
<path d="M404.5 20h357.5" /></g><path d="M762.0 20a10 10 0 0 1 10 10v0a10 10 0 0 0 10 10" /><path d="M384.5 40h20" /><g>
<path d="M404.5 40h0.0" /><path d="M762.0 40h0.0" /><g class="non-terminal ">
<path d="M404.5 40h0.0" /><path d="M543.5 40h0.0" /><rect height="22" width="139" x="404.5" y="29"></rect><a xlink:href="#rule-range_operator"><text x="474" y="44">range_operator</text></a></g><path d="M543.5 40h10" /><path d="M553.5 40h10" /><g class="non-terminal ">
<path d="M563.5 40h0.0" /><path d="M762.0 40h0.0" /><rect height="22" width="198.5" x="563.5" y="29"></rect><a xlink:href="#rule-logical_or_expression"><text x="662.75" y="44">logical_or_expression</text></a></g></g><path d="M762.0 40h20" /></g></g><path d="M782.0 40h10" /><path d="M 792.0 40 h 20 m -10 -10 v 20 m 10 -20 v 20"></path></g></svg>
